# Blender v2.72 (sub 0) OBJ File: ''
# www.blender.org
v 0.000000 -1.000000 -1.000000
v 0.000000 1.000000 -1.000000
v 0.098017 -1.000000 -0.995185
v 0.098017 1.000000 -0.995185
v 0.195090 -1.000000 -0.980785
v 0.195090 1.000000 -0.980785
v 0.290285 -1.000000 -0.956940
v 0.290285 1.000000 -0.956940
v 0.382683 -1.000000 -0.923880
v 0.382683 1.000000 -0.923880
v 0.471397 -1.000000 -0.881921
v 0.471397 1.000000 -0.881921
v 0.555570 -1.000000 -0.831470
v 0.555570 1.000000 -0.831470
v 0.634393 -1.000000 -0.773010
v 0.634393 1.000000 -0.773010
v 0.707107 -1.000000 -0.707107
v 0.707107 1.000000 -0.707107
v 0.773010 -1.000000 -0.634393
v 0.773010 1.000000 -0.634393
v 0.831470 -1.000000 -0.555570
v 0.831470 1.000000 -0.555570
v 0.881921 -1.000000 -0.471397
v 0.881921 1.000000 -0.471397
v 0.923880 -1.000000 -0.382683
v 0.923880 1.000000 -0.382683
v 0.956940 -1.000000 -0.290285
v 0.956940 1.000000 -0.290285
v 0.980785 -1.000000 -0.195090
v 0.980785 1.000000 -0.195090
v 0.995185 -1.000000 -0.098017
v 0.995185 1.000000 -0.098017
v 1.000000 -1.000000 0.000000
v 1.000000 1.000000 0.000000
v 0.995185 -1.000000 0.098017
v 0.995185 1.000000 0.098017
v 0.980785 -1.000000 0.195091
v 0.980785 1.000000 0.195091
v 0.956940 -1.000000 0.290285
v 0.956940 1.000000 0.290285
v 0.923879 -1.000000 0.382684
v 0.923879 1.000000 0.382684
v 0.881921 -1.000000 0.471397
v 0.881921 1.000000 0.471397
v 0.831469 -1.000000 0.555571
v 0.831469 1.000000 0.555571
v 0.773010 -1.000000 0.634394
v 0.773010 1.000000 0.634394
v 0.707106 -1.000000 0.707107
v 0.707106 1.000000 0.707107
v 0.634393 -1.000000 0.773011
v 0.634393 1.000000 0.773011
v 0.555570 -1.000000 0.831470
v 0.555570 1.000000 0.831470
v 0.471396 -1.000000 0.881922
v 0.471396 1.000000 0.881922
v 0.382683 -1.000000 0.923880
v 0.382683 1.000000 0.923880
v 0.290284 -1.000000 0.956941
v 0.290284 1.000000 0.956941
v 0.195090 -1.000000 0.980785
v 0.195090 1.000000 0.980785
v 0.098016 -1.000000 0.995185
v 0.098016 1.000000 0.995185
v -0.000001 -1.000000 1.000000
v -0.000001 1.000000 1.000000
v -0.098018 -1.000000 0.995185
v -0.098018 1.000000 0.995185
v -0.195091 -1.000000 0.980785
v -0.195091 1.000000 0.980785
v -0.290286 -1.000000 0.956940
v -0.290286 1.000000 0.956940
v -0.382684 -1.000000 0.923879
v -0.382684 1.000000 0.923879
v -0.471398 -1.000000 0.881921
v -0.471398 1.000000 0.881921
v -0.555571 -1.000000 0.831469
v -0.555571 1.000000 0.831469
v -0.634394 -1.000000 0.773010
v -0.634394 1.000000 0.773010
v -0.707108 -1.000000 0.707106
v -0.707108 1.000000 0.707106
v -0.773011 -1.000000 0.634393
v -0.773011 1.000000 0.634393
v -0.831470 -1.000000 0.555570
v -0.831470 1.000000 0.555570
v -0.881922 -1.000000 0.471396
v -0.881922 1.000000 0.471396
v -0.923880 -1.000000 0.382683
v -0.923880 1.000000 0.382683
v -0.956940 -1.000000 0.290285
v -0.956940 1.000000 0.290285
v -0.980785 -1.000000 0.195090
v -0.980785 1.000000 0.195090
v -0.995185 -1.000000 0.098017
v -0.995185 1.000000 0.098017
v -1.000000 -1.000000 0.000000
v -1.000000 1.000000 0.000000
v -0.995185 -1.000000 -0.098016
v -0.995185 1.000000 -0.098016
v -0.980785 -1.000000 -0.195089
v -0.980785 1.000000 -0.195089
v -0.956941 -1.000000 -0.290284
v -0.956941 1.000000 -0.290284
v -0.923880 -1.000000 -0.382682
v -0.923880 1.000000 -0.382682
v -0.881922 -1.000000 -0.471395
v -0.881922 1.000000 -0.471395
v -0.831471 -1.000000 -0.555569
v -0.831471 1.000000 -0.555569
v -0.773012 -1.000000 -0.634392
v -0.773012 1.000000 -0.634392
v -0.707108 -1.000000 -0.707105
v -0.707108 1.000000 -0.707105
v -0.634395 -1.000000 -0.773009
v -0.634395 1.000000 -0.773009
v -0.555572 -1.000000 -0.831468
v -0.555572 1.000000 -0.831468
v -0.471399 -1.000000 -0.881920
v -0.471399 1.000000 -0.881920
v -0.382686 -1.000000 -0.923878
v -0.382686 1.000000 -0.923878
v -0.290288 -1.000000 -0.956939
v -0.290288 1.000000 -0.956939
v -0.195093 -1.000000 -0.980785
v -0.195093 1.000000 -0.980785
v -0.098021 -1.000000 -0.995184
v -0.098021 1.000000 -0.995184
vt 1.000000 0.000000
vt 1.000000 1.000000
vt 0.000000 1.000000
vt 0.000000 0.000000
vt 0.038060 0.308658
vt 0.021530 0.354858
vt 1.000000 0.500000
vt 0.500000 1.000000
vt 0.500000 0.000000
vt 0.059039 0.735698
vt 0.450990 0.997592
vt 0.402453 0.990392
vt 0.354856 0.978470
vt 0.597545 0.009607
vt 0.450991 0.002408
vt 0.264300 0.940960
vt 0.308657 0.961939
vt 0.146446 0.853553
vt 0.084265 0.777784
vt 0.113494 0.817196
vt 0.009607 0.597545
vt 0.021530 0.645142
vt 0.038060 0.691341
vt 0.000000 0.500000
vt 0.002408 0.549008
vt 0.009607 0.402455
vt 0.002408 0.450991
vt 0.146446 0.146447
vt 0.059039 0.264302
vt 0.113494 0.182804
vt 0.084265 0.222215
vt 0.222214 0.084265
vt 0.182803 0.113495
vt 0.308658 0.038060
vt 0.264301 0.059040
vt 0.402454 0.009607
vt 0.354857 0.021530
vt 0.549008 0.002408
vt 0.853553 0.146446
vt 0.645142 0.021530
vt 0.777785 0.084265
vt 0.735698 0.059039
vt 0.691341 0.038060
vt 0.817196 0.113495
vt 0.915735 0.222215
vt 0.886505 0.182803
vt 0.961940 0.308658
vt 0.940961 0.264301
vt 0.978470 0.354858
vt 0.990393 0.402455
vt 0.997592 0.450991
vt 0.961940 0.691342
vt 0.978470 0.645142
vt 0.990393 0.597545
vt 0.915735 0.777785
vt 0.940961 0.735698
vt 0.853553 0.853553
vt 0.886505 0.817197
vt 0.735698 0.940961
vt 0.817197 0.886505
vt 0.597545 0.990393
vt 0.645142 0.978470
vt 0.691342 0.961940
vt 0.549009 0.997592
vt 0.182802 0.886505
vt 0.222214 0.915734
vt 0.997592 0.549008
vt 0.777785 0.915735
vn 0.049100 0.000000 -0.998800
vn 0.146700 0.000000 -0.989200
vn 0.243000 0.000000 -0.970000
vn 0.336900 0.000000 -0.941500
vn 0.427600 0.000000 -0.904000
vn 0.514100 0.000000 -0.857700
vn 0.595700 0.000000 -0.803200
vn 0.671600 0.000000 -0.741000
vn 0.741000 0.000000 -0.671600
vn 0.803200 0.000000 -0.595700
vn 0.857700 0.000000 -0.514100
vn 0.904000 0.000000 -0.427600
vn 0.941500 0.000000 -0.336900
vn 0.970000 0.000000 -0.243000
vn 0.989200 0.000000 -0.146700
vn 0.998800 0.000000 -0.049100
vn 0.998800 0.000000 0.049100
vn 0.989200 0.000000 0.146700
vn 0.970000 0.000000 0.243000
vn 0.941500 0.000000 0.336900
vn 0.904000 0.000000 0.427600
vn 0.857700 0.000000 0.514100
vn 0.803200 0.000000 0.595700
vn 0.741000 0.000000 0.671600
vn 0.671600 0.000000 0.741000
vn 0.595700 0.000000 0.803200
vn 0.514100 0.000000 0.857700
vn 0.427600 0.000000 0.904000
vn 0.336900 0.000000 0.941500
vn 0.243000 0.000000 0.970000
vn 0.146700 0.000000 0.989200
vn 0.049100 0.000000 0.998800
vn -0.049100 0.000000 0.998800
vn -0.146700 0.000000 0.989200
vn -0.243000 0.000000 0.970000
vn -0.336900 0.000000 0.941500
vn -0.427600 0.000000 0.904000
vn -0.514100 0.000000 0.857700
vn -0.595700 0.000000 0.803200
vn -0.671600 0.000000 0.741000
vn -0.741000 0.000000 0.671600
vn -0.803200 0.000000 0.595700
vn -0.857700 0.000000 0.514100
vn -0.904000 0.000000 0.427600
vn -0.941500 0.000000 0.336900
vn -0.970000 0.000000 0.243000
vn -0.989200 0.000000 0.146700
vn -0.998800 0.000000 0.049100
vn -0.998800 0.000000 -0.049100
vn -0.989200 0.000000 -0.146700
vn -0.970000 0.000000 -0.243000
vn -0.941500 0.000000 -0.336900
vn -0.904000 0.000000 -0.427600
vn -0.857700 0.000000 -0.514100
vn -0.803200 0.000000 -0.595700
vn -0.741000 0.000000 -0.671600
vn -0.671600 0.000000 -0.741000
vn -0.595700 0.000000 -0.803200
vn -0.514100 0.000000 -0.857700
vn -0.427600 0.000000 -0.904000
vn -0.336900 0.000000 -0.941500
vn -0.243000 0.000000 -0.970000
vn 0.000000 1.000000 -0.000000
vn -0.049100 0.000000 -0.998800
vn -0.146700 0.000000 -0.989200
vn 0.000000 -1.000000 0.000000
s off
f 2/1/1 4/2/1 3/3/1
f 4/1/2 6/2/2 5/3/2
f 6/1/3 8/2/3 7/3/3
f 8/1/4 10/2/4 9/3/4
f 10/1/5 12/2/5 11/3/5
f 12/1/6 14/2/6 13/3/6
f 14/1/7 16/2/7 15/3/7
f 16/1/8 18/2/8 17/3/8
f 17/4/9 18/1/9 20/2/9
f 19/4/10 20/1/10 22/2/10
f 22/1/11 24/2/11 23/3/11
f 24/1/12 26/2/12 25/3/12
f 26/1/13 28/2/13 27/3/13
f 28/1/14 30/2/14 29/3/14
f 29/4/15 30/1/15 32/2/15
f 32/1/16 34/2/16 33/3/16
f 34/1/17 36/2/17 35/3/17
f 35/4/18 36/1/18 38/2/18
f 38/1/19 40/2/19 39/3/19
f 40/1/20 42/2/20 41/3/20
f 42/1/21 44/2/21 43/3/21
f 44/1/22 46/2/22 45/3/22
f 46/1/23 48/2/23 47/3/23
f 48/1/24 50/2/24 49/3/24
f 50/1/25 52/2/25 51/3/25
f 52/1/26 54/2/26 53/3/26
f 54/1/27 56/2/27 55/3/27
f 56/1/28 58/2/28 57/3/28
f 57/4/29 58/1/29 60/2/29
f 60/1/30 62/2/30 61/3/30
f 62/1/31 64/2/31 63/3/31
f 63/4/32 64/1/32 66/2/32
f 65/4/33 66/1/33 68/2/33
f 68/1/34 70/2/34 69/3/34
f 70/1/35 72/2/35 71/3/35
f 72/1/36 74/2/36 73/3/36
f 74/1/37 76/2/37 75/3/37
f 76/1/38 78/2/38 77/3/38
f 78/1/39 80/2/39 79/3/39
f 80/1/40 82/2/40 81/3/40
f 82/1/41 84/2/41 83/3/41
f 84/1/42 86/2/42 85/3/42
f 86/1/43 88/2/43 87/3/43
f 88/1/44 90/2/44 89/3/44
f 90/1/45 92/2/45 91/3/45
f 92/1/46 94/2/46 93/3/46
f 94/1/47 96/2/47 95/3/47
f 96/1/48 98/2/48 97/3/48
f 98/1/49 100/2/49 99/3/49
f 100/1/50 102/2/50 101/3/50
f 102/1/51 104/2/51 103/3/51
f 104/1/52 106/2/52 105/3/52
f 106/1/53 108/2/53 107/3/53
f 108/1/54 110/2/54 109/3/54
f 110/1/55 112/2/55 111/3/55
f 112/1/56 114/2/56 113/3/56
f 114/1/57 116/2/57 115/3/57
f 116/1/58 118/2/58 117/3/58
f 118/1/59 120/2/59 119/3/59
f 120/1/60 122/2/60 121/3/60
f 122/1/61 124/2/61 123/3/61
f 124/1/62 126/2/62 125/3/62
f 44/5/63 42/6/63 100/7/63
f 128/1/64 2/2/64 1/3/64
f 126/1/65 128/2/65 127/3/65
f 1/8/66 33/7/66 65/9/66
f 1/4/1 2/1/1 3/3/1
f 3/4/2 4/1/2 5/3/2
f 5/4/3 6/1/3 7/3/3
f 7/4/4 8/1/4 9/3/4
f 9/4/5 10/1/5 11/3/5
f 11/4/6 12/1/6 13/3/6
f 13/4/7 14/1/7 15/3/7
f 15/4/8 16/1/8 17/3/8
f 19/3/9 17/4/9 20/2/9
f 21/3/10 19/4/10 22/2/10
f 21/4/11 22/1/11 23/3/11
f 23/4/12 24/1/12 25/3/12
f 25/4/13 26/1/13 27/3/13
f 27/4/14 28/1/14 29/3/14
f 31/3/15 29/4/15 32/2/15
f 31/4/16 32/1/16 33/3/16
f 33/4/17 34/1/17 35/3/17
f 37/3/18 35/4/18 38/2/18
f 37/4/19 38/1/19 39/3/19
f 39/4/20 40/1/20 41/3/20
f 41/4/21 42/1/21 43/3/21
f 43/4/22 44/1/22 45/3/22
f 45/4/23 46/1/23 47/3/23
f 47/4/24 48/1/24 49/3/24
f 49/4/25 50/1/25 51/3/25
f 51/4/26 52/1/26 53/3/26
f 53/4/27 54/1/27 55/3/27
f 55/4/28 56/1/28 57/3/28
f 59/3/29 57/4/29 60/2/29
f 59/4/30 60/1/30 61/3/30
f 61/4/31 62/1/31 63/3/31
f 65/3/32 63/4/32 66/2/32
f 67/3/33 65/4/33 68/2/33
f 67/4/34 68/1/34 69/3/34
f 69/4/35 70/1/35 71/3/35
f 71/4/36 72/1/36 73/3/36
f 73/4/37 74/1/37 75/3/37
f 75/4/38 76/1/38 77/3/38
f 77/4/39 78/1/39 79/3/39
f 79/4/40 80/1/40 81/3/40
f 81/4/41 82/1/41 83/3/41
f 83/4/42 84/1/42 85/3/42
f 85/4/43 86/1/43 87/3/43
f 87/4/44 88/1/44 89/3/44
f 89/4/45 90/1/45 91/3/45
f 91/4/46 92/1/46 93/3/46
f 93/4/47 94/1/47 95/3/47
f 95/4/48 96/1/48 97/3/48
f 97/4/49 98/1/49 99/3/49
f 99/4/50 100/1/50 101/3/50
f 101/4/51 102/1/51 103/3/51
f 103/4/52 104/1/52 105/3/52
f 105/4/53 106/1/53 107/3/53
f 107/4/54 108/1/54 109/3/54
f 109/4/55 110/1/55 111/3/55
f 111/4/56 112/1/56 113/3/56
f 113/4/57 114/1/57 115/3/57
f 115/4/58 116/1/58 117/3/58
f 117/4/59 118/1/59 119/3/59
f 119/4/60 120/1/60 121/3/60
f 121/4/61 122/1/61 123/3/61
f 123/4/62 124/1/62 125/3/62
f 4/8/63 26/10/63 6/11/63
f 8/12/63 6/11/63 10/13/63
f 72/14/63 68/9/63 66/15/63
f 14/16/63 12/17/63 20/18/63
f 24/19/63 22/20/63 20/18/63
f 12/17/63 6/11/63 24/19/63
f 32/21/63 30/22/63 28/23/63
f 36/24/63 34/25/63 32/21/63
f 40/26/63 38/27/63 36/24/63
f 40/26/63 36/24/63 42/6/63
f 44/5/63 52/28/63 46/29/63
f 52/28/63 50/30/63 48/31/63
f 56/32/63 54/33/63 52/28/63
f 60/34/63 58/35/63 56/32/63
f 64/36/63 62/37/63 60/34/63
f 64/36/63 72/14/63 66/15/63
f 72/14/63 70/38/63 68/9/63
f 72/14/63 84/39/63 74/40/63
f 80/41/63 78/42/63 76/43/63
f 84/39/63 82/44/63 80/41/63
f 88/45/63 86/46/63 84/39/63
f 92/47/63 90/48/63 88/45/63
f 92/47/63 100/7/63 94/49/63
f 96/50/63 94/49/63 98/51/63
f 94/49/63 100/7/63 98/51/63
f 108/52/63 106/53/63 104/54/63
f 112/55/63 110/56/63 108/52/63
f 116/57/63 114/58/63 112/55/63
f 116/57/63 122/59/63 118/60/63
f 64/36/63 60/34/63 56/32/63
f 128/61/63 126/62/63 124/63/63
f 4/8/63 2/64/63 128/61/63
f 52/28/63 48/31/63 46/29/63
f 18/65/63 16/66/63 14/16/63
f 20/18/63 12/17/63 24/19/63
f 36/24/63 32/21/63 28/23/63
f 72/14/63 52/28/63 44/5/63
f 18/65/63 14/16/63 20/18/63
f 52/28/63 72/14/63 56/32/63
f 122/59/63 116/57/63 112/55/63
f 72/14/63 100/7/63 84/39/63
f 84/39/63 80/41/63 76/43/63
f 92/47/63 88/45/63 84/39/63
f 6/11/63 12/17/63 10/13/63
f 102/67/63 100/7/63 28/23/63
f 108/52/63 4/8/63 112/55/63
f 108/52/63 104/54/63 102/67/63
f 124/63/63 122/59/63 128/61/63
f 28/23/63 26/10/63 4/8/63
f 6/11/63 26/10/63 24/19/63
f 112/55/63 4/8/63 128/61/63
f 125/4/65 126/1/65 127/3/65
f 122/59/63 112/55/63 128/61/63
f 100/7/63 92/47/63 84/39/63
f 127/4/64 128/1/64 1/3/64
f 84/39/63 76/43/63 74/40/63
f 4/8/63 108/52/63 28/23/63
f 42/6/63 36/24/63 100/7/63
f 72/14/63 64/36/63 56/32/63
f 108/52/63 102/67/63 28/23/63
f 36/24/63 28/23/63 100/7/63
f 122/59/63 120/68/63 118/60/63
f 72/14/63 44/5/63 100/7/63
f 127/11/66 1/8/66 101/21/66
f 121/17/66 123/13/66 125/12/66
f 117/66/66 119/16/66 121/17/66
f 31/67/66 25/52/66 27/53/66
f 113/18/66 115/65/66 111/20/66
f 109/19/66 111/20/66 107/10/66
f 105/23/66 107/10/66 103/22/66
f 101/21/66 71/37/66 99/25/66
f 93/26/66 95/27/66 97/24/66
f 99/25/66 83/30/66 91/6/66
f 89/5/66 91/6/66 87/29/66
f 87/29/66 91/6/66 83/30/66
f 81/28/66 83/30/66 79/33/66
f 73/34/66 75/35/66 77/32/66
f 99/25/66 71/37/66 73/34/66
f 69/36/66 71/37/66 67/15/66
f 63/38/66 65/9/66 41/47/66
f 59/40/66 61/14/66 63/38/66
f 107/10/66 101/21/66 103/22/66
f 53/41/66 55/42/66 51/44/66
f 49/39/66 51/44/66 47/46/66
f 41/47/66 43/48/66 45/45/66
f 41/47/66 33/7/66 39/49/66
f 37/50/66 39/49/66 35/51/66
f 33/7/66 25/52/66 31/67/66
f 29/54/66 31/67/66 27/53/66
f 5/61/66 9/63/66 11/59/66
f 23/56/66 25/52/66 17/57/66
f 13/68/66 15/60/66 17/57/66
f 13/68/66 5/61/66 11/59/66
f 5/61/66 7/62/66 9/63/66
f 1/8/66 3/64/66 5/61/66
f 19/58/66 23/56/66 17/57/66
f 71/37/66 65/9/66 67/15/66
f 115/65/66 127/11/66 101/21/66
f 51/44/66 45/45/66 47/46/66
f 51/44/66 41/47/66 45/45/66
f 121/17/66 125/12/66 127/11/66
f 63/38/66 41/47/66 55/42/66
f 99/25/66 77/32/66 79/33/66
f 59/40/66 63/38/66 55/42/66
f 55/42/66 41/47/66 51/44/66
f 117/66/66 121/17/66 127/11/66
f 97/24/66 99/25/66 93/26/66
f 93/26/66 99/25/66 91/6/66
f 19/58/66 21/55/66 23/56/66
f 1/8/66 5/61/66 17/57/66
f 117/66/66 127/11/66 115/65/66
f 107/10/66 115/65/66 101/21/66
f 39/49/66 33/7/66 35/51/66
f 5/61/66 13/68/66 17/57/66
f 55/42/66 57/43/66 59/40/66
f 99/25/66 73/34/66 77/32/66
f 17/57/66 25/52/66 33/7/66
f 85/31/66 87/29/66 83/30/66
f 101/21/66 1/8/66 71/37/66
f 99/25/66 79/33/66 83/30/66
f 111/20/66 115/65/66 107/10/66
f 1/8/66 17/57/66 33/7/66
f 65/9/66 71/37/66 1/8/66
f 65/9/66 33/7/66 41/47/66
